Coordinates
version=1
nRows=13
nColumns=63
inDegrees=yes

Units are S.I. units (second, meters, Newtons, ...)
If the header above contains a line with 'inDegrees', this indicates whether rotational values are in degrees (yes) or radians (no).

endheader
time	pelvis_tilt	pelvis_list	pelvis_rotation	pelvis_tx	pelvis_ty	pelvis_tz	hip_flexion_r	hip_adduction_r	hip_rotation_r	knee_angle_r	knee_angle_r_beta	ankle_angle_r	subtalar_angle_r	mtp_angle_r	hip_flexion_l	hip_adduction_l	hip_rotation_l	knee_angle_l	knee_angle_l_beta	ankle_angle_l	subtalar_angle_l	mtp_angle_l	L5_S1_Flex_Ext	L5_S1_Lat_Bending	L5_S1_axial_rotation	L4_L5_Flex_Ext	L4_L5_Lat_Bending	L4_L5_axial_rotation	L3_L4_Flex_Ext	L3_L4_Lat_Bending	L3_L4_axial_rotation	L2_L3_Flex_Ext	L2_L3_Lat_Bending	L2_L3_axial_rotation	L1_L2_Flex_Ext	L1_L2_Lat_Bending	L1_L2_axial_rotation	L1_T12_Flex_Ext	L1_T12_Lat_Bending	L1_T12_axial_rotation	Abs_r3	Abs_r2	Abs_r1	Abs_t1	Abs_t2	neck_flexion	neck_bending	neck_rotation	arm_flex_r	arm_add_r	arm_rot_r	elbow_flex_r	pro_sup_r	wrist_flex_r	wrist_dev_r	arm_flex_l	arm_add_l	arm_rot_l	elbow_flex_l	pro_sup_l	wrist_flex_l	wrist_dev_l
4.355932	-6.171030	-2.050701	85.943297	0.276903	0.845720	0.646875	-7.518446	-6.487069	27.790172	1.136818	0.019841	24.161388	-14.066437	0.000000	0.687833	7.269773	-0.858827	8.966764	0.156500	37.994128	-12.413007	0.000000	-0.374760	-0.928598	1.050886	-0.695966	-1.235035	1.116567	-0.615693	-2.257793	1.116567	-0.428313	-2.257793	0.919525	-0.348002	-1.893597	0.853845	-0.214138	-1.438398	0.788165	-2.676872	-10.504484	5.844714	0.000000	0.000000	22.098113	1.780573	-7.147313	7.681799	-4.427303	152.899332	7.119724	3.460667	-11.761615	-4.983701	11.558392	-10.383900	156.371659	4.049608	3.882121	-6.253959	-5.960091
4.372881	-6.228370	-1.978290	86.000905	0.276836	0.845867	0.646718	-7.608531	-6.531494	27.592365	1.157922	0.020210	24.174432	-14.097775	0.000000	0.563371	7.355573	-0.363769	8.832913	0.154163	37.865222	-12.628107	0.000000	-0.381239	-0.937522	1.034147	-0.707998	-1.246905	1.098781	-0.626337	-2.279492	1.098781	-0.435718	-2.279492	0.904878	-0.354018	-1.911795	0.840244	-0.217840	-1.452222	0.775610	-2.723149	-10.605439	5.751613	0.000000	0.000000	22.058730	1.756530	-7.236180	7.550594	-4.200605	154.606119	6.606909	3.429910	-11.938899	-4.716468	11.522143	-10.427373	156.261562	4.098510	3.831539	-6.231374	-5.925713
4.389831	-6.271481	-1.927281	86.077022	0.276714	0.846007	0.646560	-7.690332	-6.556240	27.442766	1.198501	0.020918	24.069706	-14.172257	0.000000	0.482030	7.418880	-0.038977	8.779043	0.153223	37.591612	-12.951998	0.000000	-0.386500	-0.944657	1.009460	-0.717770	-1.256394	1.072551	-0.634981	-2.296840	1.072551	-0.441731	-2.296840	0.883278	-0.358904	-1.926346	0.820186	-0.220846	-1.463274	0.757095	-2.760733	-10.686154	5.614314	0.000000	0.000000	21.950644	1.737689	-7.370285	7.450747	-4.011798	155.929589	6.187651	3.416239	-12.061259	-4.518663	11.463351	-10.474149	156.030850	4.156193	3.801976	-6.253636	-5.920029
4.406780	-6.304256	-1.892590	86.160420	0.276558	0.846143	0.646399	-7.763821	-6.568343	27.300846	1.253901	0.021885	23.887998	-14.220776	0.000000	0.432586	7.465684	0.140596	8.785753	0.153340	37.239913	-13.281595	0.000000	-0.390982	-0.950446	0.980925	-0.726093	-1.264093	1.042233	-0.642344	-2.310913	1.042233	-0.446853	-2.310913	0.858310	-0.363066	-1.938149	0.797002	-0.223407	-1.472240	0.735694	-2.792745	-10.751630	5.455612	0.000000	0.000000	21.785802	1.745958	-7.535227	7.383878	-3.876973	156.735468	5.905058	3.424397	-12.123835	-4.391636	11.389576	-10.520467	155.784116	4.208782	3.763579	-6.311677	-5.943044
4.423729	-6.318842	-1.880960	86.246147	0.276371	0.846266	0.646259	-7.812879	-6.558443	27.154608	1.328744	0.023191	23.653316	-14.234434	0.000000	0.429102	7.490297	0.231283	8.862287	0.154676	36.855463	-13.593662	0.000000	-0.393939	-0.953758	0.950357	-0.731585	-1.268498	1.009754	-0.647203	-2.318967	1.009754	-0.450233	-2.318967	0.831562	-0.365812	-1.944903	0.772165	-0.225097	-1.477371	0.712767	-2.813870	-10.789099	5.285598	0.000000	0.000000	21.604077	1.766836	-7.721688	7.353001	-3.786262	157.274530	5.723545	3.396753	-12.138877	-4.326541	11.304596	-10.561265	155.508800	4.251317	3.732471	-6.399605	-6.000732
4.440678	-6.316000	-1.890691	86.335105	0.276157	0.846368	0.646152	-7.837940	-6.527734	26.999045	1.416400	0.024721	23.375966	-14.220664	0.000000	0.476159	7.492783	0.237518	9.021925	0.157462	36.458038	-13.864724	0.000000	-0.395329	-0.954812	0.920827	-0.734166	-1.269900	0.978378	-0.649486	-2.321531	0.978378	-0.451822	-2.321531	0.805723	-0.367103	-1.947053	0.748172	-0.225891	-1.479004	0.690620	-2.823797	-10.801029	5.121362	0.000000	0.000000	21.450992	1.808875	-7.917259	7.358470	-3.744346	157.514684	5.657418	3.351264	-12.122743	-4.329425	11.218264	-10.592194	155.244338	4.281583	3.689523	-6.531555	-6.089261
4.457627	-6.285711	-1.908342	86.423916	0.275943	0.846457	0.646066	-7.851816	-6.466460	26.832855	1.515912	0.026458	23.064963	-14.160200	0.000000	0.539816	7.463563	0.169238	9.227349	0.161048	36.060587	-14.086102	0.000000	-0.396106	-0.952957	0.895063	-0.735609	-1.267433	0.951004	-0.650763	-2.317021	0.951004	-0.452710	-2.317021	0.783180	-0.367824	-1.943271	0.727238	-0.226335	-1.476131	0.671297	-2.829348	-10.780045	4.978069	0.000000	0.000000	21.344719	1.867210	-8.129192	7.384421	-3.746743	157.405500	5.683495	3.305291	-12.087821	-4.385718	11.147461	-10.615163	154.992886	4.321983	3.665197	-6.703950	-6.210059
4.474576	-6.236770	-1.924038	86.514803	0.275728	0.846538	0.645991	-7.867180	-6.384512	26.656836	1.621891	0.028307	22.716920	-14.075814	0.000000	0.605196	7.409087	-0.007373	9.461886	0.165141	35.667259	-14.231717	0.000000	-0.396960	-0.949392	0.876152	-0.737195	-1.262691	0.930912	-0.652166	-2.308352	0.930912	-0.453686	-2.308352	0.766633	-0.368617	-1.936000	0.711874	-0.226823	-1.470608	0.657114	-2.835447	-10.739712	4.872897	0.000000	0.000000	21.314081	1.905034	-8.386363	7.420328	-3.783545	156.999288	5.783761	3.313676	-12.062349	-4.479039	11.098338	-10.628336	154.765125	4.369322	3.674864	-6.918896	-6.354341
4.491525	-6.175746	-1.938004	86.601055	0.275524	0.846605	0.645944	-7.878602	-6.289537	26.471731	1.740869	0.030384	22.334816	-13.957114	0.000000	0.674643	7.331603	-0.337637	9.715201	0.169562	35.295417	-14.261503	0.000000	-0.397753	-0.945027	0.867125	-0.738666	-1.256886	0.921320	-0.653468	-2.297740	0.921320	-0.454592	-2.297740	0.758734	-0.369353	-1.927100	0.704539	-0.227276	-1.463847	0.650343	-2.841107	-10.690339	4.822687	0.000000	0.000000	21.374540	1.898044	-8.704351	7.453944	-3.836200	156.441506	5.915074	3.407115	-12.070844	-4.588115	11.081378	-10.630946	154.636056	4.420990	3.704852	-7.166638	-6.507492
4.508475	-6.100558	-1.950977	86.668485	0.275333	0.846649	0.645907	-7.888344	-6.184047	26.381487	1.864647	0.032544	21.877132	-13.921700	0.000000	0.740082	7.237531	-0.728117	9.961621	0.173863	34.929037	-14.304250	0.000000	-0.397735	-0.939181	0.868369	-0.738634	-1.249111	0.922642	-0.653439	-2.283525	0.922642	-0.454572	-2.283525	0.759822	-0.369337	-1.915179	0.705549	-0.227266	-1.454792	0.651276	-2.840983	-10.624207	4.829605	0.000000	0.000000	21.523793	1.842423	-9.039434	7.473803	-3.875227	156.201764	5.997697	3.407921	-12.079230	-4.672429	11.083451	-10.618225	154.621257	4.464148	3.737517	-7.430123	-6.659336
4.525424	-6.015365	-1.962883	86.726977	0.275148	0.846668	0.645883	-7.895982	-6.070940	26.360623	1.993814	0.034799	21.370139	-13.941456	0.000000	0.793279	7.132053	-1.132352	10.175192	0.177591	34.599838	-14.338572	0.000000	-0.397377	-0.932334	0.875626	-0.737969	-1.240004	0.930353	-0.652851	-2.266876	0.930353	-0.454162	-2.266876	0.766173	-0.369004	-1.901215	0.711446	-0.227061	-1.444185	0.656720	-2.838424	-10.546744	4.869970	0.000000	0.000000	21.757856	1.733844	-9.374403	7.476870	-3.908636	156.098280	6.053300	3.398127	-12.074083	-4.737537	11.102991	-10.595563	154.677358	4.506119	3.793304	-7.696855	-6.802352
4.542373	-5.924579	-1.973697	86.763064	0.274990	0.846666	0.645881	-7.896405	-5.956013	26.393494	2.121576	0.037028	20.833580	-14.007610	0.000000	0.843593	7.021033	-1.516755	10.356683	0.180758	34.369050	-14.321202	0.000000	-0.397261	-0.924720	0.888423	-0.737753	-1.229878	0.943949	-0.652660	-2.248365	0.943949	-0.454029	-2.248365	0.777370	-0.368896	-1.885690	0.721843	-0.226995	-1.432392	0.666317	-2.837593	-10.460621	4.941140	0.000000	0.000000	22.070912	1.572019	-9.684100	7.464821	-3.938417	156.056096	6.097286	3.382838	-12.058488	-4.787244	11.133631	-10.566043	154.777874	4.543199	3.861304	-7.956267	-6.933642
4.559322	-5.828100	-1.994699	86.761456	0.274864	0.846624	0.645929	-7.868314	-5.840944	26.477580	2.244883	0.039181	20.320745	-14.121219	0.000000	0.936845	6.909050	-1.799645	10.549522	0.184124	34.317393	-14.243376	0.000000	-0.396620	-0.915794	0.909053	-0.736562	-1.218006	0.965868	-0.651606	-2.226662	0.965868	-0.453296	-2.226662	0.795421	-0.368301	-1.867488	0.738605	-0.226628	-1.418565	0.681789	-2.833014	-10.359647	5.055877	0.000000	0.000000	22.464222	1.350469	-9.957846	7.442265	-3.978826	155.898352	6.168571	3.365314	-12.015994	-4.849129	11.174008	-10.520360	154.950338	4.561871	3.908601	-8.182706	-7.031087
